<svg width="80" height="81" viewBox="0 0 80 81" fill="none" xmlns="http://www.w3.org/2000/svg">
<g id="Frame">
<path id="Vector" d="M72.4331 60.4999L45.7664 13.8333C45.185 12.8073 44.3418 11.9539 43.3228 11.3602C42.3039 10.7664 41.1457 10.4536 39.9664 10.4536C38.7871 10.4536 37.6289 10.7664 36.61 11.3602C35.5911 11.9539 34.7479 12.8073 34.1664 13.8333L7.49977 60.4999C6.91204 61.5178 6.60386 62.6729 6.60646 63.8483C6.60906 65.0237 6.92236 66.1774 7.51459 67.1927C8.10681 68.2079 8.95692 69.0486 9.97875 69.6294C11.0006 70.2102 12.1578 70.5105 13.3331 70.4999H66.6664C67.8361 70.4987 68.9849 70.1898 69.9974 69.6042C71.0099 69.0186 71.8505 68.1769 72.4348 67.1637C73.0191 66.1504 73.3266 65.0012 73.3263 63.8316C73.326 62.6619 73.0179 61.5129 72.4331 60.4999Z" fill="#FFA500"/>
<path id="Vector_2" d="M40 30.5V43.8333" stroke="white" stroke-width="4.34783" stroke-linecap="round" stroke-linejoin="round"/>
<path id="Vector_3" d="M40 57.1667H40.0327" stroke="white" stroke-width="4.34783" stroke-linecap="round" stroke-linejoin="round"/>
</g>
</svg>
