<svg width="14" height="14" viewBox="0 0 14 14" fill="none" xmlns="http://www.w3.org/2000/svg">
<g id="Frame" clipPath="url(#clip0_252_260)">
<path id="Vector" d="M9.80298 1.95706C9.94568 1.78843 10.1222 1.65117 10.3213 1.55403C10.5203 1.45688 10.7376 1.40199 10.9592 1.39285C11.1809 1.3837 11.402 1.42051 11.6085 1.50091C11.815 1.58132 12.0024 1.70357 12.1587 1.85986C12.315 2.01616 12.4367 2.20307 12.5163 2.40869C12.5958 2.61431 12.6313 2.83412 12.6205 3.05412C12.6098 3.27412 12.5529 3.48948 12.4537 3.68647C12.3545 3.88347 12.215 4.05777 12.0442 4.19827L4.4801 11.7624L1.39844 12.6028L2.23889 9.52115L9.80298 1.95706Z" stroke="#111111" strokeWidth="0.941309" strokeLinecap="round" strokeLinejoin="round"/>
<path id="Vector_2" d="M8.68164 3.07782L10.9229 5.31903" stroke="#111111" strokeWidth="0.941309" strokeLinecap="round" strokeLinejoin="round"/>
</g>
<defs>
<clipPath id="clip0_252_260">
<rect width="13.4473" height="13.4473" fill="white" transform="translate(0.277344 0.276367)"/>
</clipPath>
</defs>
</svg>
