<svg width="42" height="43" viewBox="0 0 42 43" fill="none" xmlns="http://www.w3.org/2000/svg">
<rect x="0.836914" y="0.918457" width="41.163" height="41.163" rx="5.14537" fill="#598931"/>
<path d="M34.1109 23.0295H24.5725C23.6407 23.0295 23.0849 24.068 23.6018 24.8434L27.0592 30.0295V34.2751C27.0592 34.2957 27.0674 34.3155 27.082 34.3301L29.5104 36.7585C29.8749 37.123 30.4658 37.123 30.8303 36.7585L30.9953 36.5935C31.2141 36.3747 31.337 36.0779 31.337 35.7685V30.0295L35.0567 24.8793C35.6139 24.1077 35.0626 23.0295 34.1109 23.0295Z" fill="white"/>
<path d="M14.2258 5.91846H11.5036V8.64068H9.17025C7.88158 8.64068 6.83691 9.68535 6.83691 10.974V31.974C6.83691 33.2627 7.88158 34.3073 9.17025 34.3073H24.3369V31.5851H9.94802V15.6407H29.7814V19.9185H32.5036V10.974C32.5036 9.68535 31.4589 8.64068 30.1702 8.64068H28.2258V5.91846H25.5036V8.64068H14.2258V5.91846Z" fill="white"/>
</svg>
