<svg width="23" height="23" viewBox="0 0 23 23" fill="none" xmlns="http://www.w3.org/2000/svg">
<g id="Frame">
<path id="Vector" d="M3.38281 11.6435C3.38281 13.2971 3.87319 14.9137 4.79193 16.2887C5.71068 17.6637 7.01652 18.7354 8.54434 19.3682C10.0721 20.0011 11.7533 20.1666 13.3752 19.844C14.9972 19.5214 16.487 18.7251 17.6563 17.5557C18.8257 16.3864 19.622 14.8966 19.9446 13.2746C20.2672 11.6527 20.1016 9.97156 19.4688 8.44375C18.836 6.91594 17.7643 5.61009 16.3893 4.69135C15.0143 3.7726 13.3977 3.28223 11.744 3.28223C9.40657 3.29102 7.16299 4.2031 5.48241 5.82775L3.38281 7.92735" stroke="white" stroke-width="2.1439" stroke-linecap="round" stroke-linejoin="round"/>
<path id="Vector_2" d="M3.38281 3.28223V7.92735H8.02794" stroke="white" stroke-width="2.1439" stroke-linecap="round" stroke-linejoin="round"/>
</g>
</svg>
