<svg width="27" height="28" viewBox="0 0 27 28" fill="none" xmlns="http://www.w3.org/2000/svg">
<g id="Frame">
<path id="Vector" d="M13.7396 3.1145H13.2606C12.6832 3.1145 12.1295 3.34387 11.7212 3.75215C11.3129 4.16044 11.0835 4.71419 11.0835 5.29159V5.48752C11.0831 5.8693 10.9824 6.24427 10.7913 6.5748C10.6002 6.90533 10.3256 7.17981 9.99499 7.3707L9.52692 7.64284C9.19596 7.83391 8.82053 7.93451 8.43837 7.93451C8.05622 7.93451 7.68079 7.83391 7.34983 7.64284L7.18655 7.55575C6.68698 7.26757 6.09348 7.1894 5.53632 7.33838C4.97917 7.48736 4.5039 7.85133 4.21483 8.35039L3.97535 8.76403C3.68718 9.2636 3.609 9.85711 3.75798 10.4143C3.90696 10.9714 4.27093 11.4467 4.76999 11.7358L4.93327 11.8446C5.26231 12.0346 5.53591 12.3073 5.72687 12.6358C5.91784 12.9643 6.01952 13.337 6.02181 13.7169V14.2721C6.02334 14.6557 5.92346 15.0329 5.73231 15.3655C5.54115 15.6981 5.2655 15.9743 4.93327 16.1661L4.76999 16.2641C4.27093 16.5531 3.90696 17.0284 3.75798 17.5856C3.609 18.1427 3.68718 18.7362 3.97535 19.2358L4.21483 19.6495C4.5039 20.1485 4.97917 20.5125 5.53632 20.6615C6.09348 20.8104 6.68698 20.7323 7.18655 20.4441L7.34983 20.357C7.68079 20.1659 8.05622 20.0653 8.43837 20.0653C8.82053 20.0653 9.19596 20.1659 9.52692 20.357L9.99499 20.6291C10.3256 20.82 10.6002 21.0945 10.7913 21.425C10.9824 21.7556 11.0831 22.1305 11.0835 22.5123V22.7083C11.0835 23.2857 11.3129 23.8394 11.7212 24.2477C12.1295 24.656 12.6832 24.8853 13.2606 24.8853H13.7396C14.317 24.8853 14.8707 24.656 15.279 24.2477C15.6873 23.8394 15.9167 23.2857 15.9167 22.7083V22.5123C15.917 22.1305 16.0178 21.7556 16.2089 21.425C16.3999 21.0945 16.6746 20.82 17.0052 20.6291L17.4733 20.357C17.8042 20.1659 18.1797 20.0653 18.5618 20.0653C18.944 20.0653 19.3194 20.1659 19.6504 20.357L19.8136 20.4441C20.3132 20.7323 20.9067 20.8104 21.4639 20.6615C22.021 20.5125 22.4963 20.1485 22.7854 19.6495L23.0248 19.2249C23.313 18.7253 23.3912 18.1318 23.2422 17.5747C23.0932 17.0175 22.7293 16.5423 22.2302 16.2532L22.0669 16.1661C21.7347 15.9743 21.459 15.6981 21.2679 15.3655C21.0767 15.0329 20.9769 14.6557 20.9784 14.2721V13.7278C20.9769 13.3442 21.0767 12.9669 21.2679 12.6343C21.459 12.3017 21.7347 12.0255 22.0669 11.8337L22.2302 11.7358C22.7293 11.4467 23.0932 10.9714 23.2422 10.4143C23.3912 9.85711 23.313 9.2636 23.0248 8.76403L22.7854 8.35039C22.4963 7.85133 22.021 7.48736 21.4639 7.33838C20.9067 7.1894 20.3132 7.26757 19.8136 7.55575L19.6504 7.64284C19.3194 7.83391 18.944 7.93451 18.5618 7.93451C18.1797 7.93451 17.8042 7.83391 17.4733 7.64284L17.0052 7.3707C16.6746 7.17981 16.3999 6.90533 16.2089 6.5748C16.0178 6.24427 15.917 5.8693 15.9167 5.48752V5.29159C15.9167 4.71419 15.6873 4.16044 15.279 3.75215C14.8707 3.34387 14.317 3.1145 13.7396 3.1145Z" stroke="#111111" strokeWidth="1.44692" strokeLinecap="round" strokeLinejoin="round"/>
<path id="Vector_2" d="M13.5 17.2656C15.3036 17.2656 16.7656 15.8036 16.7656 14C16.7656 12.1964 15.3036 10.7344 13.5 10.7344C11.6964 10.7344 10.2344 12.1964 10.2344 14C10.2344 15.8036 11.6964 17.2656 13.5 17.2656Z" stroke="#111111" strokeWidth="1.44692" strokeLinecap="round" strokeLinejoin="round"/>
</g>
</svg>
