<svg width="27" height="27" viewBox="0 0 27 27" fill="none" xmlns="http://www.w3.org/2000/svg">
<g id="Frame">
<path id="Vector" d="M13.7397 2.32715H13.2607C12.6833 2.32715 12.1296 2.55652 11.7213 2.9648C11.313 3.37308 11.0837 3.92683 11.0837 4.50423V4.70017C11.0833 5.08195 10.9825 5.45691 10.7914 5.78745C10.6004 6.11798 10.3257 6.39246 9.99511 6.58335L9.52704 6.85548C9.19608 7.04656 8.82065 7.14716 8.4385 7.14716C8.05634 7.14716 7.68091 7.04656 7.34996 6.85548L7.18667 6.7684C6.6871 6.48022 6.0936 6.40204 5.53645 6.55103C4.97929 6.70001 4.50402 7.06398 4.21496 7.56303L3.97548 7.97668C3.6873 8.47625 3.60912 9.06975 3.7581 9.62691C3.90709 10.1841 4.27105 10.6593 4.77011 10.9484L4.93339 11.0573C5.26243 11.2472 5.53603 11.52 5.72699 11.8484C5.91796 12.1769 6.01964 12.5496 6.02193 12.9295V13.4847C6.02346 13.8683 5.92359 14.2455 5.73243 14.5781C5.54127 14.9108 5.26563 15.187 4.93339 15.3788L4.77011 15.4767C4.27105 15.7658 3.90709 16.2411 3.7581 16.7982C3.60912 17.3554 3.6873 17.9489 3.97548 18.4485L4.21496 18.8621C4.50402 19.3612 4.97929 19.7251 5.53645 19.8741C6.0936 20.0231 6.6871 19.9449 7.18667 19.6567L7.34996 19.5696C7.68091 19.3786 8.05634 19.278 8.4385 19.278C8.82065 19.278 9.19608 19.3786 9.52704 19.5696L9.99511 19.8418C10.3257 20.0327 10.6004 20.3072 10.7914 20.6377C10.9825 20.9682 11.0833 21.3432 11.0837 21.725V21.9209C11.0837 22.4983 11.313 23.052 11.7213 23.4603C12.1296 23.8686 12.6833 24.098 13.2607 24.098H13.7397C14.3171 24.098 14.8708 23.8686 15.2791 23.4603C15.6874 23.052 15.9168 22.4983 15.9168 21.9209V21.725C15.9172 21.3432 16.018 20.9682 16.209 20.6377C16.4001 20.3072 16.6747 20.0327 17.0053 19.8418L17.4734 19.5696C17.8043 19.3786 18.1798 19.278 18.5619 19.278C18.9441 19.278 19.3195 19.3786 19.6505 19.5696L19.8138 19.6567C20.3133 19.9449 20.9068 20.0231 21.464 19.8741C22.0211 19.7251 22.4964 19.3612 22.7855 18.8621L23.025 18.4376C23.3131 17.938 23.3913 17.3445 23.2423 16.7873C23.0933 16.2302 22.7294 15.7549 22.2303 15.4658L22.067 15.3788C21.7348 15.187 21.4592 14.9108 21.268 14.5781C21.0768 14.2455 20.977 13.8683 20.9785 13.4847V12.9404C20.977 12.5568 21.0768 12.1796 21.268 11.847C21.4592 11.5144 21.7348 11.2382 22.067 11.0464L22.2303 10.9484C22.7294 10.6593 23.0933 10.1841 23.2423 9.62691C23.3913 9.06975 23.3131 8.47625 23.025 7.97668L22.7855 7.56303C22.4964 7.06398 22.0211 6.70001 21.464 6.55103C20.9068 6.40204 20.3133 6.48022 19.8138 6.7684L19.6505 6.85548C19.3195 7.04656 18.9441 7.14716 18.5619 7.14716C18.1798 7.14716 17.8043 7.04656 17.4734 6.85548L17.0053 6.58335C16.6747 6.39246 16.4001 6.11798 16.209 5.78745C16.018 5.45691 15.9172 5.08195 15.9168 4.70017V4.50423C15.9168 3.92683 15.6874 3.37308 15.2791 2.9648C14.8708 2.55652 14.3171 2.32715 13.7397 2.32715Z" fill="#111111"/>
<path id="Vector_2" d="M13.5 16.4783C15.3036 16.4783 16.7656 15.0162 16.7656 13.2126C16.7656 11.4091 15.3036 9.94702 13.5 9.94702C11.6964 9.94702 10.2344 11.4091 10.2344 13.2126C10.2344 15.0162 11.6964 16.4783 13.5 16.4783Z" fill="white"/>
</g>
</svg>
