<svg width="21" height="21" viewBox="0 0 21 21" fill="none" xmlns="http://www.w3.org/2000/svg">
<g id="Frame">
<path id="Vector" d="M13.9259 11.0456L18.2755 13.9453C18.3382 13.9871 18.4111 14.011 18.4863 14.0146C18.5615 14.0182 18.6363 14.0013 18.7027 13.9658C18.7691 13.9302 18.8246 13.8773 18.8634 13.8127C18.9021 13.7481 18.9225 13.6742 18.9226 13.5989V6.77345C18.9226 6.70018 18.9033 6.62821 18.8666 6.56479C18.8299 6.50138 18.7771 6.44876 18.7136 6.41227C18.6501 6.37577 18.578 6.35669 18.5048 6.35694C18.4315 6.35718 18.3596 6.37676 18.2963 6.41369L13.9259 8.96365" stroke="black" stroke-width="0.93" stroke-linecap="round" stroke-linejoin="round"/>
<path id="Vector_2" d="M12.2603 5.21606H3.93253C3.01266 5.21606 2.26697 5.96176 2.26697 6.88162V13.5439C2.26697 14.4637 3.01266 15.2094 3.93253 15.2094H12.2603C13.1802 15.2094 13.9259 14.4637 13.9259 13.5439V6.88162C13.9259 5.96176 13.1802 5.21606 12.2603 5.21606Z" stroke="black" stroke-width="0.93" stroke-linecap="round" stroke-linejoin="round"/>
</g>
</svg>
