<svg width="14" height="14" viewBox="0 0 14 14" fill="none" xmlns="http://www.w3.org/2000/svg">
<g id="Frame" clip-path="url('#clip0_41_3')">
<path id="Vector" d="M9.80151 1.95694C9.94421 1.78831 10.1207 1.65105 10.3198 1.55391C10.5189 1.45676 10.7362 1.40187 10.9578 1.39272C11.1794 1.38358 11.4005 1.42038 11.607 1.50079C11.8135 1.5812 12.0009 1.70345 12.1572 1.85974C12.3135 2.01603 12.4353 2.20295 12.5148 2.40857C12.5943 2.61419 12.6298 2.834 12.6191 3.054C12.6083 3.274 12.5515 3.48936 12.4522 3.68635C12.353 3.88334 12.2135 4.05765 12.0427 4.19815L4.47864 11.7622L1.39697 12.6027L2.23743 9.52103L9.80151 1.95694Z" stroke="#111111" stroke-width="0.941309" stroke-linecap="round" stroke-linejoin="round"></path>
<path id="Vector_2" d="M8.68115 3.07788L10.9224 5.31909" stroke="#111111" stroke-width="0.941309" stroke-linecap="round" stroke-linejoin="round"></path>
</g>
<defs>
<clipPath id="clip0_41_3">
<rect width="13.4473" height="13.4473" fill="white" transform="translate(0.276367 0.276367)"></rect>
</clipPath>
</defs>
</svg>
