<svg width="13" height="13" viewBox="0 0 13 13" fill="none" xmlns="http://www.w3.org/2000/svg">
<g id="Frame">
<path id="Vector" d="M2.19316 10.351C1.91338 10.351 1.67387 10.2514 1.47464 10.0521C1.2754 9.85288 1.17578 9.61337 1.17578 9.33359V3.2293C1.17578 2.94952 1.2754 2.71001 1.47464 2.51077C1.67387 2.31153 1.91338 2.21191 2.19316 2.21191H7.78877C7.94985 2.21191 8.10246 2.24795 8.24659 2.32001C8.39072 2.39208 8.50941 2.49169 8.60267 2.61887L11.3496 6.28144L8.60267 9.94402C8.50941 10.0712 8.39072 10.1708 8.24659 10.2429C8.10246 10.3149 7.94985 10.351 7.78877 10.351H2.19316ZM2.19316 9.33359H7.78877L10.0779 6.28144L7.78877 3.2293H2.19316V9.33359Z" fill="#CDCCCC"></path>
</g>
</svg>
