<svg width="18" height="18" viewBox="0 0 18 18" fill="none" xmlns="http://www.w3.org/2000/svg">
<g id="Frame">
<path id="Vector" d="M15.3074 9.21247C15.3074 10.5026 14.9248 11.7638 14.2081 12.8365C13.4913 13.9092 12.4726 14.7452 11.2806 15.239C10.0887 15.7327 8.77714 15.8618 7.5118 15.6102C6.24646 15.3585 5.08416 14.7372 4.1719 13.8249C3.25964 12.9127 2.63839 11.7504 2.38669 10.4851C2.135 9.21971 2.26418 7.90815 2.75789 6.71622C3.2516 5.5243 4.08767 4.50554 5.16038 3.78878C6.23308 3.07202 7.49424 2.68945 8.78437 2.68945C10.6108 2.68945 12.3575 3.41423 13.6694 4.67535L15.3074 6.31335" stroke="#111111" stroke-width="0.930155" stroke-linecap="round" stroke-linejoin="round"></path>
<path id="Vector_2" d="M15.3073 2.68945V6.31335H11.6833" stroke="#111111" stroke-width="0.930155" stroke-linecap="round" stroke-linejoin="round"></path>
</g>
</svg>
