<svg width="27" height="27" fill="none" xmlns="http://www.w3.org/2000/svg"><g id="Frame"><path id="Vector" d="M13.74 2.327h-.48a2.177 2.177 0 0 0-2.176 2.177V4.7a2.177 2.177 0 0 1-1.089 1.883l-.468.272a2.177 2.177 0 0 1-2.177 0l-.163-.087a2.177 2.177 0 0 0-2.972.795l-.24.414a2.177 2.177 0 0 0 .795 2.971l.163.11a2.177 2.177 0 0 1 1.089 1.872v.555a2.177 2.177 0 0 1-1.089 1.894l-.163.098a2.177 2.177 0 0 0-.795 2.971l.24.414a2.177 2.177 0 0 0 2.972.795l.163-.087a2.178 2.178 0 0 1 2.177 0l.468.272a2.177 2.177 0 0 1 1.089 1.883v.196a2.177 2.177 0 0 0 2.177 2.177h.479a2.177 2.177 0 0 0 2.177-2.177v-.196a2.178 2.178 0 0 1 1.088-1.883l.468-.272a2.178 2.178 0 0 1 2.178 0l.163.087a2.177 2.177 0 0 0 2.971-.795l.24-.424a2.178 2.178 0 0 0-.795-2.972l-.163-.087a2.177 2.177 0 0 1-1.088-1.894v-.545a2.177 2.177 0 0 1 1.088-1.894l.163-.098a2.177 2.177 0 0 0 .795-2.971l-.24-.414a2.177 2.177 0 0 0-2.971-.795l-.163.087a2.177 2.177 0 0 1-2.178 0l-.468-.272A2.178 2.178 0 0 1 15.917 4.7v-.196a2.177 2.177 0 0 0-2.177-2.177Z" fill="#111"/><path id="Vector_2" d="M13.5 16.478a3.266 3.266 0 1 0 0-6.53 3.266 3.266 0 0 0 0 6.53Z" fill="#fff"/></g></svg>