<svg width="27" height="28" fill="none" xmlns="http://www.w3.org/2000/svg"><g id="Frame" stroke="#111" stroke-width="1.447" stroke-linecap="round" stroke-linejoin="round"><path id="Vector" d="M13.74 3.115h-.48a2.177 2.177 0 0 0-2.176 2.177v.196A2.177 2.177 0 0 1 9.995 7.37l-.468.272a2.177 2.177 0 0 1-2.177 0l-.163-.087a2.177 2.177 0 0 0-2.972.794l-.24.414a2.177 2.177 0 0 0 .795 2.972l.163.109a2.177 2.177 0 0 1 1.089 1.872v.555a2.177 2.177 0 0 1-1.089 1.894l-.163.098a2.177 2.177 0 0 0-.795 2.972l.24.413a2.177 2.177 0 0 0 2.972.795l.163-.087a2.177 2.177 0 0 1 2.177 0l.468.272a2.178 2.178 0 0 1 1.089 1.883v.196a2.177 2.177 0 0 0 2.177 2.177h.479a2.177 2.177 0 0 0 2.177-2.177v-.196a2.176 2.176 0 0 1 1.088-1.883l.468-.272a2.177 2.177 0 0 1 2.177 0l.164.087a2.178 2.178 0 0 0 2.971-.794l.24-.425a2.177 2.177 0 0 0-.795-2.972l-.163-.087a2.177 2.177 0 0 1-1.089-1.894v-.544a2.177 2.177 0 0 1 1.089-1.894l.163-.098a2.177 2.177 0 0 0 .795-2.972l-.24-.414a2.177 2.177 0 0 0-2.971-.794l-.164.087a2.177 2.177 0 0 1-2.177 0l-.468-.272a2.177 2.177 0 0 1-1.088-1.883v-.196a2.177 2.177 0 0 0-2.177-2.177Z"/><path id="Vector_2" d="M13.5 17.266a3.266 3.266 0 1 0 0-6.531 3.266 3.266 0 0 0 0 6.53Z"/></g></svg>