<svg width="18" height="18" viewBox="0 0 18 18" fill="none" xmlns="http://www.w3.org/2000/svg">
<g id="Frame">
<path id="Vector" d="M13.5456 6.41804C14.7033 6.41804 15.6419 5.47953 15.6419 4.32181C15.6419 3.1641 14.7033 2.22559 13.5456 2.22559C12.3879 2.22559 11.4494 3.1641 11.4494 4.32181C11.4494 5.47953 12.3879 6.41804 13.5456 6.41804Z" stroke="#111111" stroke-width="1.10267" stroke-linecap="round" stroke-linejoin="round"></path>
<path id="Vector_2" d="M5.16074 11.3089C6.31846 11.3089 7.25697 10.3704 7.25697 9.21268C7.25697 8.05497 6.31846 7.11646 5.16074 7.11646C4.00303 7.11646 3.06451 8.05497 3.06451 9.21268C3.06451 10.3704 4.00303 11.3089 5.16074 11.3089Z" stroke="#111111" stroke-width="1.10267" stroke-linecap="round" stroke-linejoin="round"></path>
<path id="Vector_3" d="M13.5456 16.2C14.7033 16.2 15.6419 15.2615 15.6419 14.1038C15.6419 12.9461 14.7033 12.0076 13.5456 12.0076C12.3879 12.0076 11.4494 12.9461 11.4494 14.1038C11.4494 15.2615 12.3879 16.2 13.5456 16.2Z" stroke="#111111" stroke-width="1.10267" stroke-linecap="round" stroke-linejoin="round"></path>
<path id="Vector_4" d="M6.97052 10.2678L11.7429 13.0488" stroke="#111111" stroke-width="1.10267" stroke-linecap="round" stroke-linejoin="round"></path>
<path id="Vector_5" d="M11.7359 5.37646L6.97052 8.15746" stroke="#111111" stroke-width="1.10267" stroke-linecap="round" stroke-linejoin="round"></path>
</g>
</svg>
